# Blender 4.4.3
# www.blender.org
mtllib circle.mtl
o Circle
v -0.000000 0.000000 -0.406170
v -0.287206 0.000000 -0.287206
v -0.406170 0.000000 0.000000
v -0.287206 0.000000 0.287206
v -0.000000 0.000000 0.406170
v 0.287206 0.000000 0.287206
v 0.406170 0.000000 0.000000
v 0.287206 0.000000 -0.287206
vn -0.0000 1.0000 -0.0000
vt -0.000000 0.292893
vt 0.707107 1.000000
vt 0.000000 0.707107
vt 0.292893 0.000000
vt 1.000000 0.707107
vt 0.707107 -0.000000
vt 1.000000 0.292893
vt 0.292893 1.000000
s 0
f 2/1/1 7/2/1 1/3/1
f 7/2/1 2/1/1 3/4/1
f 6/5/1 7/2/1 3/4/1
f 6/5/1 3/4/1 4/6/1
f 5/7/1 6/5/1 4/6/1
f 7/2/1 8/8/1 1/3/1
