# Blender 4.4.3
# www.blender.org
mtllib enemy2.mtl
o Cube.001
v 0.000000 0.014949 -1.379519
v -1.194699 0.014949 0.689760
v 1.194699 0.014949 0.689760
v 0.000178 2.330548 0.002132
vn -0.0000 -1.0000 -0.0000
vn -0.0000 0.2847 0.9586
vn -0.8299 0.2859 -0.4791
vn 0.8299 0.2858 -0.4791
vt 0.467409 0.527478
vt 0.872196 0.761182
vt 0.467409 0.994886
vt 0.000000 0.527478
vt 0.233739 1.000000
vt 0.467409 0.472709
vt 0.000000 0.472709
vt 0.233360 -0.000000
vt 0.886271 0.320052
vt 0.467409 0.000000
s 1
usemtl Material.002
f 2/1/1 1/2/1 3/3/1
f 2/4/2 3/1/2 4/5/2
f 1/6/3 2/7/3 4/8/3
f 3/9/4 1/1/4 4/10/4
