# Blender 4.4.3
# www.blender.org
mtllib enemy3.mtl
o Cube.001
v 0.955688 1.033183 -0.439523
v 0.381219 1.033183 -0.002791
v 0.955688 1.033183 0.490294
v 0.000000 0.077495 -0.439523
v 0.000000 0.651964 -0.002791
v 0.000000 0.077495 0.481465
v -0.955688 1.033183 -0.439523
v -0.381219 1.033183 -0.002791
v -0.955688 1.033183 0.490294
v 0.000000 1.988871 -0.439523
v 0.000000 1.414402 -0.002791
v 0.000000 1.988871 0.490294
vn -0.6529 -0.6304 0.4199
vn -0.6520 -0.6313 0.4200
vn -0.6595 -0.6595 -0.3608
vn -0.5178 0.5178 -0.6811
vn -0.5459 0.5417 0.6392
vn -0.6689 0.6690 0.3241
vn -0.6690 0.6689 0.3241
vn -0.6595 0.6595 -0.3608
vn 0.5178 0.5178 -0.6811
vn 0.5459 0.5417 0.6392
vn 0.6690 0.6689 0.3241
vn 0.6689 0.6690 0.3241
vn 0.6595 0.6595 -0.3608
vn 0.5178 -0.5178 -0.6811
vn 0.5458 -0.5458 0.6358
vn -0.5178 -0.5178 -0.6811
vn -0.5458 -0.5458 0.6358
vn 0.6519 -0.6314 0.4200
vn 0.6529 -0.6304 0.4199
vn 0.6595 -0.6595 -0.3608
vt 0.750000 0.250000
vt 1.000000 0.250000
vt 1.000000 0.750000
vt 0.750000 0.750000
vt 0.500000 0.750000
vt 0.750000 1.000000
vt 0.500000 1.000000
vt 0.500000 0.000000
vt 0.750000 0.000000
vt 0.500000 0.250000
vt 0.000000 0.250000
vt 0.250000 0.250000
vt 0.250000 0.750000
vt 0.000000 0.750000
vt 1.000000 1.000000
vt 1.000000 0.000000
vt 0.250000 1.000000
vt 0.000000 1.000000
vt 0.000000 0.000000
vt 0.250000 0.000000
s 1
usemtl Material.004
f 6/1/1 9/2/2 7/3/3 4/4/3
f 1/5/4 4/4/4 5/6/4 2/7/4
f 2/8/5 5/9/5 6/1/5 3/10/5
f 9/11/6 12/12/7 10/13/8 7/14/8
f 4/4/9 7/3/9 8/15/9 5/6/9
f 5/9/10 8/16/10 9/2/10 6/1/10
f 12/12/11 3/10/12 1/5/13 10/13/13
f 7/14/14 10/13/14 11/17/14 8/18/14
f 8/19/15 11/20/15 12/12/15 9/11/15
f 10/13/16 1/5/16 2/7/16 11/17/16
f 11/20/17 2/8/17 3/10/17 12/12/17
f 3/10/18 6/1/19 4/4/20 1/5/20
