# Blender 4.4.3
# www.blender.org
mtllib enemy5.mtl
o Cube
v 0.193197 0.352100 1.113110
v 0.234019 0.739839 0.936633
v 0.066678 0.426961 -0.433279
v 0.066678 0.587103 -0.433279
v 1.203834 0.000337 -0.720801
v 0.778333 1.010094 -0.584956
v 0.105221 0.388419 0.460932
v 0.141541 0.352099 -0.177161
v 0.851706 1.240423 -0.441076
v 0.848630 0.965206 -0.451191
v 0.141541 0.661965 -0.177161
v 0.105221 0.625647 0.460932
v 0.055710 0.561972 -0.250322
v 0.055710 0.452093 -0.250322
v 0.033135 0.410377 -0.738797
v 0.033135 0.503433 -0.738797
v 0.029163 0.535425 -0.341142
v 0.029163 0.478639 -0.341142
v 0.092613 0.613038 -0.563918
v 0.092613 0.401026 -0.563918
v 0.068193 0.456655 0.037433
v 0.074443 0.450405 -0.072367
v 0.074443 0.563660 -0.072367
v 0.068193 0.557411 0.037433
v 0.861242 1.010044 0.087024
v 0.870888 1.070402 -0.082456
v 0.861241 1.235570 0.087025
v 1.335040 -0.000332 0.044406
v 0.048944 0.455019 0.375618
v 0.048944 0.559046 0.375618
v 0.057373 0.567475 0.227540
v 0.057373 0.446591 0.227541
v 0.871144 1.022035 0.569445
v 0.763110 0.960458 0.671065
v 0.763110 1.134491 0.671065
v 0.011077 0.525492 -0.612833
v -0.008674 0.489096 -0.670905
v -0.008674 0.458195 -0.670905
v 1.190773 -0.004421 1.048729
v 0.011077 0.455090 -0.612833
v 0.223119 0.444068 -0.674146
v 0.223119 0.543340 -0.674146
v 0.144849 0.448446 -0.710950
v 0.041194 0.483229 -0.930972
v -0.219983 0.352100 1.113110
v -0.260805 0.739839 0.936633
v -0.093464 0.426961 -0.433279
v -0.093464 0.587103 -0.433279
v -1.230620 0.000337 -0.720801
v -0.805119 1.010094 -0.584956
v -0.132006 0.388419 0.460932
v -0.168326 0.352099 -0.177161
v -0.878492 1.240423 -0.441076
v -0.875415 0.965206 -0.451191
v -0.168326 0.661965 -0.177161
v -0.132006 0.625647 0.460932
v -0.082495 0.561972 -0.250322
v -0.082495 0.452093 -0.250322
v -0.059921 0.410377 -0.738797
v -0.059921 0.503433 -0.738797
v -0.055948 0.535425 -0.341142
v -0.055948 0.478639 -0.341142
v -0.119399 0.613038 -0.563918
v -0.119399 0.401026 -0.563918
v -0.094979 0.456655 0.037433
v -0.101228 0.450405 -0.072367
v -0.101228 0.563660 -0.072367
v -0.094979 0.557411 0.037433
v -0.888027 1.010043 0.087024
v -0.897674 1.070402 -0.082456
v -0.888027 1.235570 0.087024
v -1.361825 -0.000332 0.044406
v -0.075730 0.455019 0.375618
v -0.075730 0.559046 0.375618
v -0.084158 0.567475 0.227540
v -0.084158 0.446591 0.227541
v -0.897930 1.022035 0.569445
v -0.789896 0.960458 0.671065
v -0.789896 1.134491 0.671065
v -0.037862 0.525492 -0.612833
v -0.018111 0.489096 -0.670905
v -0.018111 0.458195 -0.670905
v -1.217559 -0.004421 1.048729
v -0.037862 0.455090 -0.612833
v -0.249904 0.444068 -0.674146
v -0.249904 0.543340 -0.674146
v -0.171634 0.448446 -0.710950
v -0.067980 0.483229 -0.930972
vn -0.8585 -0.4042 0.3155
vn -0.0000 -0.9598 -0.2806
vn -0.0000 0.9598 -0.2806
vn 0.9770 -0.1146 -0.1799
vn -0.0000 0.4143 0.9102
vn 0.5385 -0.0370 0.8418
vn -0.0000 -0.0000 -1.0000
vn 0.9809 -0.0000 0.1947
vn -0.0000 -0.9809 0.1947
vn 0.2586 -0.0274 0.9656
vn -0.0000 -0.9986 -0.0534
vn -0.0000 0.8473 -0.5311
vn -0.0000 -0.9985 -0.0556
vn -0.0000 0.9724 -0.2334
vn 0.4163 -0.7992 -0.4337
vn -0.0000 -0.9984 0.0568
vn 0.5915 -0.7972 -0.1208
vn -0.0624 -0.0000 0.9981
vn -0.8909 -0.4095 -0.1965
vn 0.0896 -0.0000 0.9960
vn 0.5528 -0.8294 0.0813
vn -0.6619 -0.0000 0.7496
vn -0.3823 -0.0000 0.9240
vn -0.4337 -0.4886 -0.7571
vn -0.2277 0.5905 -0.7742
vn -0.0610 -0.9980 -0.0156
vn 0.2778 -0.0000 0.9606
vn 0.8160 -0.0000 -0.5780
vn -0.7699 0.4658 0.4363
vn 0.0233 -0.9857 -0.1668
vn -0.0000 0.9984 0.0568
vn 0.9984 -0.0000 0.0568
vn 0.9467 -0.0000 -0.3220
vn 0.9598 -0.0000 -0.2806
vn -0.2131 0.6744 -0.7069
vn -0.4847 0.6125 -0.6245
vn -0.6105 0.5899 -0.5285
vn 0.5221 0.3260 -0.7881
vn 0.8898 0.3512 -0.2916
vn 0.8143 0.4337 0.3858
vn 0.8585 -0.4042 0.3155
vn -0.9770 -0.1146 -0.1799
vn -0.5385 -0.0370 0.8418
vn -0.9809 -0.0000 0.1947
vn -0.2586 -0.0274 0.9656
vn -0.4163 -0.7992 -0.4337
vn -0.5915 -0.7972 -0.1208
vn 0.0624 -0.0000 0.9981
vn 0.8909 -0.4095 -0.1965
vn -0.0896 -0.0000 0.9960
vn -0.5528 -0.8294 0.0813
vn 0.6619 -0.0000 0.7496
vn 0.3823 -0.0000 0.9240
vn 0.4337 -0.4886 -0.7571
vn 0.2277 0.5905 -0.7742
vn 0.0610 -0.9980 -0.0156
vn -0.2778 -0.0000 0.9606
vn -0.8160 -0.0000 -0.5780
vn 0.7699 0.4658 0.4363
vn -0.0233 -0.9857 -0.1668
vn -0.9984 -0.0000 0.0568
vn -0.9467 -0.0000 -0.3220
vn -0.9598 -0.0000 -0.2806
vn 0.2131 0.6744 -0.7069
vn 0.4847 0.6125 -0.6245
vn 0.6105 0.5899 -0.5284
vn -0.5221 0.3260 -0.7881
vn -0.8898 0.3512 -0.2916
vn -0.8143 0.4337 0.3858
vn -0.0000 0.9809 0.1947
vt 0.625000 0.708594
vt 0.625000 0.750000
vt 0.375000 0.750000
vt 0.375000 0.708594
vt 0.375000 0.500000
vt 0.625000 0.500000
vt 0.625000 0.625261
vt 0.375000 0.625261
vt 0.000000 0.000000
vt 0.625000 0.669361
vt 0.375000 0.669361
s 1
usemtl Material.003
f 10/1/1 6/2/1 5/1/1
f 52/1/2 47/2/2 3/2/2 8/1/2
f 4/3/3 48/3/3 55/4/3 11/4/3
f 2/5/4 1/6/4 7/7/4 12/8/4
f 2/5/5 46/5/5 45/6/5 1/6/5
f 9/4/6 10/1/6 5/4/6
f 60/3/7 16/3/7 15/2/7 59/2/7
f 4/3/8 3/2/8 20/2/8 19/3/8
f 47/2/9 64/2/9 20/2/9 3/2/9
f 13/4/10 14/1/10 10/1/10 9/4/10
f 64/2/11 59/2/11 15/2/11 20/2/11
f 16/3/12 60/3/12 63/3/12 19/3/12
f 45/6/13 51/7/13 7/7/13 1/6/13
f 12/8/14 56/8/14 46/5/14 2/5/14
f 14/1/15 18/2/15 6/2/15 10/1/15
f 51/7/16 52/9/16 8/9/16 7/7/16
f 21/10/17 22/1/17 26/1/17 25/10/17
f 24/11/18 21/10/18 25/10/18 27/11/18
f 25/10/19 26/1/19 28/10/19
f 27/11/20 25/10/20 28/11/20
f 29/7/21 32/10/21 33/10/21 34/7/21
f 35/8/22 34/7/22 39/8/22
f 30/8/23 29/7/23 34/7/23 35/8/23
f 34/7/24 33/10/24 39/7/24
f 36/3/25 42/3/25 43/2/25 38/2/25
f 40/2/26 38/2/26 43/2/26 41/2/26
f 36/3/27 40/2/27 41/2/27 42/3/27
f 42/3/28 41/2/28 44/3/28
f 43/2/29 42/3/29 44/2/29
f 41/2/30 43/2/30 44/2/30
f 11/4/31 55/4/31 56/8/31 12/8/31
f 12/8/32 7/7/32 8/9/32 11/4/32
f 16/3/33 19/3/33 20/2/33 15/2/33
f 4/3/34 11/4/34 8/9/34 3/2/34
f 33/10/35 32/10/35 30/8/35 35/8/35
f 27/11/36 26/1/36 22/1/36 24/11/36
f 6/2/37 18/2/37 13/4/37 9/4/37
f 5/4/38 6/2/38 9/4/38
f 28/10/39 26/1/39 27/11/39
f 35/8/40 39/7/40 33/10/40
f 54/1/41 49/1/41 50/2/41
f 46/5/42 56/8/42 51/7/42 45/6/42
f 53/4/43 49/4/43 54/1/43
f 48/3/44 63/3/44 64/2/44 47/2/44
f 57/4/45 53/4/45 54/1/45 58/1/45
f 58/1/46 54/1/46 50/2/46 62/2/46
f 65/10/47 69/10/47 70/1/47 66/1/47
f 68/11/48 71/11/48 69/10/48 65/10/48
f 69/10/49 72/10/49 70/1/49
f 71/11/50 72/11/50 69/10/50
f 73/7/51 78/7/51 77/10/51 76/10/51
f 79/8/52 83/8/52 78/7/52
f 74/8/53 79/8/53 78/7/53 73/7/53
f 78/7/54 83/7/54 77/10/54
f 80/3/55 82/2/55 87/2/55 86/3/55
f 84/2/56 85/2/56 87/2/56 82/2/56
f 80/3/57 86/3/57 85/2/57 84/2/57
f 86/3/58 88/3/58 85/2/58
f 87/2/59 88/2/59 86/3/59
f 85/2/60 88/2/60 87/2/60
f 56/8/61 55/4/61 52/9/61 51/7/61
f 60/3/62 59/2/62 64/2/62 63/3/62
f 48/3/63 47/2/63 52/9/63 55/4/63
f 77/10/64 79/8/64 74/8/64 76/10/64
f 71/11/65 68/11/65 66/1/65 70/1/65
f 50/2/66 53/4/66 57/4/66 62/2/66
f 49/4/67 53/4/67 50/2/67
f 72/10/68 71/11/68 70/1/68
f 79/8/69 77/10/69 83/7/69
f 19/3/70 63/3/70 48/3/70 4/3/70
l 13 17
l 17 18
l 22 23
l 23 24
l 31 32
l 30 31
l 36 37
l 37 38
l 57 61
l 61 62
l 66 67
l 67 68
l 75 76
l 74 75
l 80 81
l 81 82
