# Blender 4.4.3
# www.blender.org
mtllib enemy4.mtl
o Cube
v -0.000000 -0.039367 -0.759353
v -0.000000 1.564658 -0.759353
v 0.657619 -0.039367 -0.379676
v 0.657619 1.564658 -0.379676
v 0.657619 -0.039367 0.379676
v 0.657619 1.564658 0.379676
v -0.000000 -0.039367 0.759353
v -0.000000 1.564658 0.759353
v -0.657619 -0.039367 0.379676
v -0.657619 1.564658 0.379676
v -0.657619 -0.039367 -0.379676
v -0.657619 1.564658 -0.379676
vn 0.5000 -0.0000 -0.8660
vn 1.0000 -0.0000 -0.0000
vn 0.5000 -0.0000 0.8660
vn -0.5000 -0.0000 0.8660
vn -0.0000 1.0000 -0.0000
vn -1.0000 -0.0000 -0.0000
vn -0.5000 -0.0000 -0.8660
vt 1.000000 0.500000
vt 0.833333 1.000000
vt 0.833333 0.500000
vt 0.666667 0.500000
vt 0.500000 1.000000
vt 0.500000 0.500000
vt 0.333333 0.500000
vt 0.042154 0.130000
vt 0.250000 0.010000
vt 0.457846 0.130000
vt 0.166667 1.000000
vt 0.166667 0.500000
vt -0.000000 0.500000
vt 1.000000 1.000000
vt 0.666667 1.000000
vt 0.333333 1.000000
vt 0.457846 0.370000
vt 0.250000 0.490000
vt 0.042154 0.370000
vt -0.000000 1.000000
s 0
usemtl Material.001
f 1/1/1 4/2/1 3/3/1
f 4/2/2 5/4/2 3/3/2
f 5/4/3 8/5/3 7/6/3
f 8/5/4 9/7/4 7/6/4
f 10/8/5 8/9/5 6/10/5
f 9/7/6 12/11/6 11/12/6
f 12/11/7 1/13/7 11/12/7
f 1/1/1 2/14/1 4/2/1
f 4/2/2 6/15/2 5/4/2
f 5/4/3 6/15/3 8/5/3
f 8/5/4 10/16/4 9/7/4
f 6/10/5 4/17/5 10/8/5
f 4/17/5 2/18/5 10/8/5
f 2/18/5 12/19/5 10/8/5
f 9/7/6 10/16/6 12/11/6
f 12/11/7 2/20/7 1/13/7
