# Blender 4.4.3
# www.blender.org
mtllib enemy1.mtl
o Cube
v 0.827780 0.200979 -0.261875
v 0.827780 -0.200979 -0.200979
v 0.827780 0.200979 0.140084
v 0.827780 -0.200979 0.200979
v 0.425821 0.200979 -0.261875
v 0.425821 -0.200979 -0.200979
v 0.425821 0.200979 0.140084
v 0.425821 -0.200979 0.200979
v 0.407139 1.146240 0.243150
v 0.000000 1.146240 0.243150
v 0.407139 1.146240 -0.158809
v 0.000000 1.146240 -0.158809
v 0.407139 2.800445 0.200979
v 0.000000 2.800445 0.200979
v 0.407139 2.800445 -0.200980
v 0.000000 2.800445 -0.200980
v 0.000000 2.379805 0.200979
v 0.000000 2.379805 -0.293404
v 0.407139 2.379805 0.200979
v 0.407139 2.379805 -0.200980
v 1.216298 1.634248 -0.344682
v 1.216298 1.634248 0.015856
v 0.969404 1.443627 0.015856
v 0.969404 1.443627 -0.344682
v 0.188563 2.800445 -0.200980
v 0.187358 2.800445 0.200979
v 0.187358 3.600540 0.200979
v 0.000000 3.600540 0.200979
v 0.000000 3.600540 -0.200980
v 0.188563 3.600540 -0.200980
v 0.404815 3.217443 -0.200980
v 0.403610 3.217443 0.200979
v 0.000000 3.217443 0.200979
v 0.000000 3.217443 -0.200980
v 0.322065 0.620307 0.107930
v 0.322065 0.620307 -0.294029
v 0.724023 0.620307 -0.294029
v 0.724023 0.620307 0.107930
v 0.885487 2.204584 -0.190398
v 0.759338 1.901471 -0.190398
v 0.885487 2.204584 0.190397
v 0.759338 1.901471 0.190397
v 0.000000 1.763022 -0.242337
v 0.407139 1.763022 -0.183522
v 0.000000 1.763022 0.159622
v 0.407139 1.763022 0.159622
v -0.827780 0.200979 -0.261875
v -0.827780 -0.200979 -0.200979
v -0.827780 0.200979 0.140084
v -0.827780 -0.200979 0.200979
v -0.425821 0.200979 -0.261875
v -0.425821 -0.200979 -0.200979
v -0.425821 0.200979 0.140084
v -0.425821 -0.200979 0.200979
v -0.407139 1.146240 0.243150
v -0.407139 1.146240 -0.158809
v -0.407139 2.800445 0.200979
v -0.407139 2.800445 -0.200980
v -0.407139 2.379805 0.200979
v -0.407139 2.379805 -0.200980
v -1.216298 1.634248 -0.344682
v -1.216298 1.634248 0.015856
v -0.969404 1.443627 0.015856
v -0.969404 1.443627 -0.344682
v -0.188563 2.800445 -0.200980
v -0.187358 2.800445 0.200979
v -0.187358 3.600540 0.200979
v -0.188563 3.600540 -0.200980
v -0.404815 3.217443 -0.200980
v -0.403610 3.217443 0.200979
v -0.322065 0.620307 0.107930
v -0.322065 0.620307 -0.294029
v -0.724023 0.620307 -0.294029
v -0.724023 0.620307 0.107930
v -0.885487 2.204584 -0.190398
v -0.759338 1.901471 -0.190398
v -0.885487 2.204584 0.190397
v -0.759338 1.901471 0.190397
v -0.407139 1.763022 -0.183522
v -0.407139 1.763022 0.159622
vn -0.8528 -0.5222 -0.0000
vn -0.0000 0.1498 0.9887
vn -1.0000 -0.0000 -0.0000
vn -0.0000 -1.0000 -0.0000
vn 1.0000 -0.0000 -0.0000
vn -0.0000 -0.1498 -0.9887
vn 0.8565 0.5161 -0.0000
vn -0.0000 0.2490 -0.9685
vn -0.0000 -0.2490 0.9685
vn -0.0000 1.0000 -0.0000
vn -0.0000 -0.0000 1.0000
vn 0.1517 0.1468 -0.9775
vn -0.2247 0.1698 -0.9595
vn 0.1823 -0.0545 -0.9817
vn -0.0000 -0.0669 0.9978
vn 0.6111 -0.7915 -0.0000
vn 0.8650 0.5017 -0.0000
vn -0.9089 -0.4170 -0.0000
vn 0.2514 -0.1900 0.9491
vn -0.0000 -0.0000 -1.0000
vn 0.8708 0.4916 0.0026
vn 0.8877 -0.4604 0.0027
vn -0.0000 0.0765 0.9971
vn -0.0000 -0.0765 -0.9971
vn 0.9707 0.2402 -0.0000
vn -0.9707 -0.2402 -0.0000
vn 0.0208 -0.0036 0.9998
vn -0.8053 -0.5929 -0.0000
vn 0.7798 0.6260 -0.0000
vn 0.0208 -0.0036 -0.9998
vn 0.9232 -0.3842 -0.0000
vn -0.0000 0.1342 0.9910
vn 0.0718 -0.0872 -0.9936
vn 0.8528 -0.5222 -0.0000
vn -0.8565 0.5161 -0.0000
vn -0.1517 0.1468 -0.9775
vn 0.2247 0.1698 -0.9595
vn -0.1823 -0.0545 -0.9817
vn -0.6111 -0.7915 -0.0000
vn -0.8650 0.5017 -0.0000
vn 0.9089 -0.4170 -0.0000
vn -0.2514 -0.1900 0.9491
vn -0.8708 0.4916 0.0026
vn -0.8877 -0.4604 0.0027
vn -0.9707 0.2402 -0.0000
vn 0.9707 -0.2402 -0.0000
vn -0.0208 -0.0036 0.9998
vn 0.8053 -0.5929 -0.0000
vn -0.7798 0.6260 -0.0000
vn -0.0208 -0.0036 -0.9998
vn -0.9232 -0.3842 -0.0000
vn -0.0718 -0.0872 -0.9936
vt 0.625000 0.250000
vt 0.625000 0.000000
vt 0.375000 0.750000
vt 0.625000 0.750000
vt 0.625000 1.000000
vt 0.375000 1.000000
vt 0.375000 0.000000
vt 0.375000 0.250000
vt 0.125000 0.500000
vt 0.375000 0.500000
vt 0.125000 0.750000
vt 0.625000 0.500000
vt 0.760944 0.500000
vt 0.761694 0.750000
vt 0.625000 0.886694
vt 0.625000 0.364056
vt 0.875000 0.500000
vt 0.875000 0.750000
vt 0.000000 0.000000
s 1
usemtl Material.001
f 36/1/1 35/2/1 10/2/1 12/1/1
f 4/3/2 3/4/2 7/5/2 8/6/2
f 8/7/3 7/2/3 5/1/3 6/8/3
f 6/9/4 2/10/4 4/3/4 8/11/4
f 2/10/5 1/12/5 3/4/5 4/3/5
f 6/8/6 5/1/6 1/12/6 2/10/6
f 38/4/7 37/12/7 11/12/7 9/4/7
f 37/12/8 36/1/8 12/1/8 11/12/8
f 35/5/9 38/4/9 9/4/9 10/5/9
f 15/12/10 25/13/10 26/14/10 13/4/10
f 17/5/11 19/4/11 26/15/11 14/5/11
f 20/12/12 18/1/12 16/1/12 25/16/12
f 40/12/13 39/12/13 21/12/13 24/12/13
f 46/4/5 44/12/5 20/12/5 19/4/5
f 44/12/14 43/1/14 18/1/14 20/12/14
f 45/5/15 46/4/15 19/4/15 17/5/15
f 23/4/16 24/12/16 21/12/16 22/4/16
f 39/12/17 41/4/17 22/4/17 21/12/17
f 42/4/18 40/12/18 24/12/18 23/4/18
f 41/4/19 42/4/19 23/4/19 22/4/19
f 25/16/20 15/12/20 20/12/20
f 32/14/21 31/13/21 30/13/21 27/14/21
f 26/15/11 19/4/11 13/4/11
f 27/14/10 30/13/10 29/17/10 28/18/10
f 31/16/20 34/1/20 29/1/20 30/16/20
f 33/5/11 32/15/11 27/15/11 28/5/11
f 14/5/11 26/15/11 32/15/11 33/5/11
f 25/16/20 16/1/20 34/1/20 31/16/20
f 26/14/22 25/13/22 31/13/22 32/14/22
f 7/5/23 3/4/23 38/4/23 35/5/23
f 1/12/24 5/1/24 36/1/24 37/12/24
f 3/4/25 1/12/25 37/12/25 38/4/25
f 5/1/26 7/2/26 35/2/26 36/1/26
f 13/4/27 19/4/27 42/4/27 41/4/27
f 19/4/28 20/12/28 40/12/28 42/4/28
f 15/12/29 13/4/29 41/4/29 39/12/29
f 20/12/30 15/12/30 39/12/30 40/12/30
f 42/19/31 40/19/31 39/19/31 41/19/31
f 10/5/32 9/4/32 46/4/32 45/5/32
f 11/12/33 12/1/33 43/1/33 44/12/33
f 9/4/5 11/12/5 44/12/5 46/4/5
f 72/1/34 12/1/34 10/2/34 71/2/34
f 50/3/2 54/6/2 53/5/2 49/4/2
f 54/7/5 52/8/5 51/1/5 53/2/5
f 52/9/4 54/11/4 50/3/4 48/10/4
f 48/10/3 50/3/3 49/4/3 47/12/3
f 52/8/6 48/10/6 47/12/6 51/1/6
f 74/4/35 55/4/35 56/12/35 73/12/35
f 73/12/8 56/12/8 12/1/8 72/1/8
f 71/5/9 10/5/9 55/4/9 74/4/9
f 58/12/10 57/4/10 66/14/10 65/13/10
f 17/5/11 14/5/11 66/15/11 59/4/11
f 60/12/36 65/16/36 16/1/36 18/1/36
f 76/12/37 64/12/37 61/12/37 75/12/37
f 80/4/3 59/4/3 60/12/3 79/12/3
f 79/12/38 60/12/38 18/1/38 43/1/38
f 45/5/15 17/5/15 59/4/15 80/4/15
f 63/4/39 62/4/39 61/12/39 64/12/39
f 75/12/40 61/12/40 62/4/40 77/4/40
f 78/4/41 63/4/41 64/12/41 76/12/41
f 77/4/42 62/4/42 63/4/42 78/4/42
f 65/16/20 60/12/20 58/12/20
f 70/14/43 67/14/43 68/13/43 69/13/43
f 66/15/11 57/4/11 59/4/11
f 67/14/10 28/18/10 29/17/10 68/13/10
f 69/16/20 68/16/20 29/1/20 34/1/20
f 33/5/11 28/5/11 67/15/11 70/15/11
f 14/5/11 33/5/11 70/15/11 66/15/11
f 65/16/20 69/16/20 34/1/20 16/1/20
f 66/14/44 70/14/44 69/13/44 65/13/44
f 53/5/23 71/5/23 74/4/23 49/4/23
f 47/12/24 73/12/24 72/1/24 51/1/24
f 49/4/45 74/4/45 73/12/45 47/12/45
f 51/1/46 72/1/46 71/2/46 53/2/46
f 57/4/47 77/4/47 78/4/47 59/4/47
f 59/4/48 78/4/48 76/12/48 60/12/48
f 58/12/49 75/12/49 77/4/49 57/4/49
f 60/12/50 76/12/50 75/12/50 58/12/50
f 78/19/51 77/19/51 75/19/51 76/19/51
f 10/5/32 45/5/32 80/4/32 55/4/32
f 56/12/52 79/12/52 43/1/52 12/1/52
f 55/4/3 80/4/3 79/12/3 56/12/3
