# Blender 4.4.3
# www.blender.org
mtllib map.mtl
o Plane
v -10.053712 0.370987 10.023741
v 11.268465 3.240580 11.925779
v 9.919567 1.236209 -10.099174
v -9.988851 0.307899 -8.453574
v -10.001537 -0.017524 -6.918015
v -9.970375 0.067439 -3.086339
v -10.010406 0.308199 -0.884948
v -10.004513 0.138442 4.173237
v -10.001961 0.599156 7.897679
v 11.987993 3.866377 9.019007
v 11.587482 2.727680 7.295499
v 11.099776 1.209637 5.618000
v 10.634674 1.407593 3.717238
v 9.869486 -0.065377 1.382246
v 10.069676 0.395477 -2.420484
v 10.007895 0.154251 -6.051885
v 10.103487 0.985866 -8.209664
v -5.229438 -0.378256 10.007675
v -4.238754 -0.279163 9.939354
v -0.309206 0.469633 10.003794
v 2.216010 0.442939 10.068720
v 3.695615 0.334314 10.297306
v 6.623642 2.336436 10.875106
v 9.103898 3.258443 10.872686
v -0.430435 0.289189 -10.016500
v -3.016946 0.522315 -9.997094
v -8.114881 0.519044 -10.001613
v -9.980614 -0.036072 -9.983703
v 8.632976 5.375497 10.681853
v 5.833990 2.854017 9.457312
v 2.953571 2.217478 9.061948
v -6.638088 -0.692754 9.724079
v 10.602511 6.592650 8.572927
v 4.914410 2.754649 7.145353
v -8.627625 0.939572 8.267477
v 8.270494 3.347932 4.971257
v 1.370587 0.747501 8.084231
v -4.772886 -0.862280 5.533865
v 9.845341 2.847360 4.579781
v 5.863723 2.579911 3.738900
v 8.128224 2.695822 2.715310
v 3.638774 0.978052 3.470181
v -8.461076 0.790381 3.221521
v 8.528737 1.516316 0.961766
v -0.170054 0.109593 6.888317
v -3.046661 -1.039479 2.844517
v 6.647248 1.050681 1.320272
v -1.673774 -1.056000 0.004712
v -5.742214 0.089734 3.391371
v -0.135891 -0.105300 3.609503
v -7.179417 0.450413 0.830899
v -8.634171 0.926763 -1.605144
v 8.690477 1.137179 -1.613519
v 5.586734 0.350209 -1.941397
v 1.306797 -1.096487 -3.557236
v -0.817893 -0.221993 -3.722147
v 4.008684 -0.282924 -3.257088
v -4.263316 0.578507 -3.933448
v -7.211683 0.392869 -4.771626
v 9.041788 0.589090 -4.573358
v -8.750504 0.503066 -5.750633
v 7.136591 0.490833 -5.784016
v 5.335939 -0.748056 -7.772696
v 9.314905 1.317555 -8.159311
v -4.505924 0.466392 -8.641305
v -5.477482 -0.043748 -5.791001
v 2.369603 -0.670787 -5.551052
v 0.664977 0.783317 -8.639630
v -8.448214 1.007561 -8.399499
v 8.300703 -0.138022 -9.811291
v 6.154556 0.301705 -10.009401
v 4.369419 0.795025 -9.978343
vn -0.6217 0.7663 0.1620
vn 0.8275 0.4706 0.3062
vn 0.4161 0.9017 -0.1176
vn 0.6395 0.7424 0.1995
vn 0.2299 0.6558 -0.7190
vn 0.2410 0.8417 0.4832
vn 0.1422 0.9828 0.1181
vn -0.0454 0.9823 0.1819
vn 0.2865 0.9180 0.2741
vn -0.5992 0.7463 -0.2897
vn -0.4591 0.8884 0.0025
vn -0.3892 0.8976 -0.2068
vn -0.3701 0.9288 -0.0176
vn 0.1370 0.9850 -0.1045
vn -0.4529 0.8853 -0.1051
vn -0.0600 0.9981 -0.0099
vn 0.7966 0.3458 -0.4958
vn 0.2186 0.9697 0.1088
vn -0.2646 0.9466 -0.1842
vn -0.2413 0.9554 -0.1703
vn -0.3723 0.9276 0.0316
vn -0.1407 0.9764 -0.1639
vn 0.2484 0.9685 0.0185
vn -0.2998 0.7595 -0.5773
vn 0.4102 0.7974 -0.4426
vn 0.2257 0.9320 -0.2836
vn -0.5676 0.7822 -0.2570
vn -0.2465 0.9619 -0.1180
vn -0.2671 0.9524 -0.1469
vn -0.1440 0.9874 -0.0662
vn -0.2394 0.9685 -0.0693
vn -0.1188 0.9034 -0.4119
vn -0.5455 0.6424 0.5383
vn -0.2719 0.9032 -0.3320
vn 0.1149 0.9566 -0.2678
vn -0.0990 0.9590 -0.2654
vn 0.8325 0.3532 -0.4268
vn 0.6749 0.5481 -0.4942
vn 0.8279 0.5415 -0.1462
vn 0.6526 0.7562 0.0467
vn -0.4478 0.8829 0.1414
vn 0.3208 0.9447 -0.0682
vn 0.3824 0.8564 0.3470
vn 0.1284 0.9227 0.3635
vn 0.3451 0.8333 0.4318
vn 0.1370 0.8765 0.4615
vn -0.3339 0.9399 -0.0716
vn -0.0612 0.9979 -0.0206
vn 0.3902 0.8741 0.2894
vn 0.2040 0.9452 0.2548
vn -0.3531 0.9035 -0.2431
vn -0.1669 0.9686 0.1841
vn 0.0373 0.9400 -0.3392
vn 0.3306 0.8715 0.3623
vn -0.0649 0.9905 -0.1211
vn -0.3062 0.9478 -0.0888
vn -0.4784 0.8749 -0.0760
vn -0.2929 0.9550 0.0478
vn -0.0595 0.9982 0.0125
vn -0.1813 0.9720 -0.1498
vn -0.3405 0.9165 -0.2101
vn 0.3286 0.9444 -0.0116
vn 0.0963 0.9917 0.0856
vn 0.3467 0.8952 0.2800
vn -0.3921 0.9190 0.0400
vn 0.4785 0.8271 0.2950
vn 0.4123 0.8901 0.1941
vn -0.2653 0.9513 -0.1567
vn 0.7784 0.5107 -0.3650
vn -0.1929 0.9659 -0.1724
vn -0.1428 0.9875 -0.0662
vn -0.4260 0.8683 -0.2541
vn 0.4134 0.8867 0.2070
vn -0.2701 0.9532 -0.1361
vn -0.4297 0.6938 -0.5779
vn -0.2981 0.7591 -0.5787
vn -0.1679 0.9498 -0.2640
vn 0.2507 0.9679 -0.0203
vn 0.5040 0.8506 0.1500
vn -0.5501 0.8027 -0.2303
vn -0.4092 0.3248 0.8527
vn -0.0861 0.9890 -0.1205
vn -0.4018 0.9020 -0.1582
vn 0.0584 0.7226 -0.6888
vn 0.5286 0.8245 0.2019
vn -0.3241 0.9380 -0.1229
vn -0.1606 0.9868 0.0214
vn -0.6253 0.7363 -0.2585
vn -0.1592 0.9810 -0.1106
vn -0.2216 0.9740 0.0463
vn -0.6270 0.7657 -0.1436
vn 0.2641 0.7078 0.6552
vn -0.2637 0.9598 0.0966
vn 0.2969 0.8113 0.5037
vn -0.1839 0.9755 -0.1209
vn 0.0066 0.9888 0.1489
vn -0.7441 0.5357 0.3992
vn -0.0930 0.5203 0.8489
vn -0.2215 0.4724 0.8531
vn -0.4375 -0.0163 0.8991
vn -0.3990 0.8942 -0.2032
vn -0.0007 0.9992 0.0405
vn -0.0611 0.9978 -0.0260
vn 0.0797 0.9164 -0.3922
vt 1.000000 0.905742
vt 0.999767 1.000000
vt 0.904229 0.999934
vt 0.999854 0.000346
vt 1.000000 0.095238
vt 0.936477 0.097924
vt 1.000000 0.621212
vt 0.951322 0.726856
vt 0.929442 0.575180
vt 1.000000 0.802509
vt 0.952236 0.897824
vt 0.746245 0.872511
vt 0.808551 1.000670
vt 0.671897 0.983548
vt 0.146693 0.735669
vt 0.272523 0.910673
vt 0.081824 0.924470
vt 0.057476 0.786827
vt 0.456763 0.688331
vt 0.610948 0.769816
vt 0.521191 0.942990
vt 0.864972 0.787813
vt 0.283993 0.687208
vt 0.232209 0.791053
vt 0.695125 0.667081
vt 0.000000 0.654231
vt 0.000000 0.845917
vt 0.066991 0.580732
vt 0.000000 0.544158
vt 0.146179 0.461453
vt 0.952381 0.253882
vt 1.000000 0.142857
vt 1.000000 0.200554
vt 0.201981 0.338449
vt 0.480879 0.315573
vt 0.559011 0.679744
vt 0.783477 0.593392
vt 0.067780 0.322628
vt 0.000000 0.291367
vt 0.819825 0.414133
vt 0.683627 0.311689
vt 0.900136 0.333333
vt 0.801859 0.296175
vt 0.923618 0.429670
vt 0.891172 0.217073
vt 0.671950 0.079462
vt 0.573241 0.100831
vt 0.785141 0.142067
vt 0.291401 -0.000018
vt 0.359506 0.351722
vt 0.488431 0.157905
vt 0.490042 -0.001214
vt 0.238095 0.000000
vt 0.180194 -0.000485
vt 0.841670 0.000000
vt 0.819808 0.052193
vt 0.692398 0.000000
vt 0.094281 1.000000
vt 0.000276 1.000000
vt 0.478558 1.000000
vt 1.000000 0.300692
vt 1.000000 0.431786
vt 0.000000 0.922666
vt 0.000000 0.105293
vt 0.078163 0.089802
vt 0.427873 0.501076
vt 0.251826 0.223170
vt 0.922952 0.000000
vt 0.904762 0.047619
vt 0.000246 0.000000
vt 0.613215 0.000000
vt 0.349167 1.000000
s 0
usemtl Material.001
f 17/1/1 3/2/1 70/3/1
f 2/4/2 10/5/2 33/6/2
f 15/7/3 60/8/3 53/9/3
f 60/8/4 16/10/4 64/11/4
f 64/11/5 17/1/5 70/3/5
f 63/12/6 71/13/6 72/14/6
f 59/15/7 65/16/7 69/17/7
f 61/18/8 59/15/8 69/17/8
f 56/19/9 67/20/9 68/21/9
f 62/22/10 64/11/10 70/3/10
f 58/23/11 65/16/11 66/24/11
f 57/25/12 62/22/12 63/12/12
f 6/26/13 61/18/13 5/27/13
f 59/15/14 61/18/14 52/28/14
f 7/29/15 52/28/15 6/26/15
f 58/23/16 59/15/16 51/30/16
f 39/31/17 33/6/17 11/32/17 12/33/17
f 49/34/18 56/19/18 58/23/18
f 50/35/19 57/25/19 55/36/19
f 50/35/20 54/37/20 57/25/20
f 43/38/21 7/29/21 8/39/21
f 47/40/22 54/37/22 42/41/22
f 43/38/23 49/34/23 52/28/23
f 41/42/24 47/40/24 40/43/24
f 39/31/25 44/44/25 41/42/25
f 36/45/26 39/31/26 41/42/26
f 31/46/27 40/43/27 37/47/27
f 36/45/28 40/43/28 34/48/28
f 19/49/29 50/35/29 46/50/29
f 19/49/30 45/51/30 50/35/30
f 20/52/31 37/47/31 42/41/31
f 18/53/32 19/49/32 32/54/32
f 23/55/33 30/56/33 22/57/33
f 69/17/34 27/58/34 28/59/34
f 65/16/35 27/58/35 69/17/35
f 68/21/36 72/14/36 25/60/36
f 10/5/37 11/32/37 33/6/37
f 44/44/38 39/31/38 13/61/38 14/62/38
f 39/31/39 12/33/39 13/61/39
f 53/9/40 44/44/40 14/62/40 15/7/40
f 4/63/41 5/27/41 61/18/41 69/17/41
f 60/8/42 15/7/42 16/10/42
f 64/11/43 16/10/43 17/1/43
f 67/20/44 72/14/44 68/21/44
f 67/20/45 63/12/45 72/14/45
f 63/12/46 70/3/46 71/13/46
f 43/38/47 8/39/47 9/64/47 35/65/47
f 65/16/48 58/23/48 68/21/48
f 59/15/49 66/24/49 65/16/49
f 58/23/50 56/19/50 68/21/50
f 62/22/51 70/3/51 63/12/51
f 60/8/52 64/11/52 62/22/52
f 58/23/53 66/24/53 59/15/53
f 55/36/54 67/20/54 56/19/54
f 57/25/55 63/12/55 67/20/55
f 57/25/56 54/37/56 62/22/56
f 52/28/57 61/18/57 6/26/57
f 57/25/58 67/20/58 55/36/58
f 60/8/59 62/22/59 54/37/59
f 47/40/60 60/8/60 54/37/60
f 47/40/61 53/9/61 60/8/61
f 52/28/62 51/30/62 59/15/62
f 51/30/63 49/34/63 58/23/63
f 48/66/64 55/36/64 56/19/64
f 43/38/65 52/28/65 7/29/65
f 49/34/66 48/66/66 56/19/66
f 49/34/67 46/50/67 48/66/67
f 44/44/68 53/9/68 47/40/68
f 52/28/69 49/34/69 51/30/69
f 48/66/70 50/35/70 55/36/70
f 45/51/71 54/37/71 50/35/71
f 45/51/72 42/41/72 54/37/72
f 49/34/73 38/67/73 46/50/73
f 46/50/74 50/35/74 48/66/74
f 42/41/75 40/43/75 47/40/75
f 41/42/76 44/44/76 47/40/76
f 36/45/77 41/42/77 40/43/77
f 43/38/78 35/65/78 49/34/78
f 35/65/79 38/67/79 49/34/79
f 37/47/80 40/43/80 42/41/80
f 30/56/81 23/55/81 24/68/81 29/69/81
f 38/67/82 19/49/82 46/50/82
f 31/46/83 34/48/83 40/43/83
f 36/45/84 33/6/84 39/31/84
f 35/65/85 32/54/85 38/67/85
f 45/51/86 20/52/86 42/41/86
f 30/56/87 36/45/87 34/48/87
f 30/56/88 33/6/88 36/45/88
f 32/54/89 19/49/89 38/67/89
f 30/56/90 34/48/90 31/46/90
f 29/69/91 33/6/91 30/56/91
f 29/69/92 2/4/92 33/6/92
f 1/70/93 35/65/93 9/64/93
f 1/70/94 32/54/94 35/65/94
f 20/52/95 45/51/95 19/49/95
f 20/52/96 21/71/96 37/47/96
f 21/71/97 31/46/97 37/47/97
f 21/71/98 22/57/98 31/46/98
f 22/57/99 30/56/99 31/46/99
f 24/68/100 2/4/100 29/69/100
f 4/63/101 69/17/101 28/59/101
f 65/16/102 26/72/102 27/58/102
f 65/16/103 68/21/103 26/72/103
f 68/21/104 25/60/104 26/72/104
