# Blender 4.4.1
# www.blender.org
mtllib orb.mtl
o Icosphere
v 0.000000 -0.164080 0.000000
v 0.118728 -0.073379 0.086260
v -0.045349 -0.073379 0.139573
v -0.146757 -0.073379 0.000000
v -0.045349 -0.073379 -0.139573
v 0.118728 -0.073379 -0.086260
v 0.045349 0.073379 0.139573
v -0.118728 0.073379 0.086260
v -0.118728 0.073379 -0.086260
v 0.045349 0.073379 -0.139573
v 0.146757 0.073379 0.000000
v 0.000000 0.164080 0.000000
vn 0.1876 -0.7947 0.5774
vn 0.6071 -0.7947 -0.0000
vn -0.4911 -0.7947 0.3568
vn -0.4911 -0.7947 -0.3568
vn 0.1876 -0.7947 -0.5774
vn 0.9822 -0.1876 -0.0000
vn 0.3035 -0.1876 0.9342
vn -0.7946 -0.1876 0.5774
vn -0.7946 -0.1876 -0.5774
vn 0.3035 -0.1876 -0.9342
vn 0.7946 0.1876 0.5774
vn -0.3035 0.1876 0.9342
vn -0.9822 0.1876 -0.0000
vn -0.3035 0.1876 -0.9342
vn 0.7946 0.1876 -0.5774
vn 0.4911 0.7947 0.3568
vn -0.1876 0.7947 0.5774
vn -0.6071 0.7947 -0.0000
vn -0.1876 0.7947 -0.5774
vn 0.4911 0.7947 -0.3568
vt 0.554956 0.016333
vt 0.445439 0.205794
vt 0.336119 0.016221
vt 0.664276 0.205906
vt 0.554758 0.395367
vt 0.992235 0.774625
vt 0.882717 0.964087
vt 0.773398 0.774514
vt 0.882915 0.585052
vt 0.664078 0.584940
vt 0.773595 0.395479
vt 0.335922 0.395255
vt 0.226603 0.205682
vt 0.663881 0.963974
vt 0.554562 0.774401
vt 0.445242 0.584828
vt 0.117283 0.016108
vt 0.117085 0.395143
vt 0.007766 0.205570
vt 0.445044 0.963862
vt 0.335725 0.774289
vt 0.226405 0.584716
s 0
usemtl Material.001
f 1/1/1 2/2/1 3/3/1
f 2/2/2 1/4/2 6/5/2
f 1/6/3 3/7/3 4/8/3
f 1/9/4 4/8/4 5/10/4
f 1/11/5 5/10/5 6/5/5
f 2/2/6 6/5/6 11/12/6
f 3/3/7 2/2/7 7/13/7
f 4/8/8 3/7/8 8/14/8
f 5/10/9 4/8/9 9/15/9
f 6/5/10 5/10/10 10/16/10
f 2/2/11 11/12/11 7/13/11
f 3/3/12 7/13/12 8/17/12
f 4/8/13 8/14/13 9/15/13
f 5/10/14 9/15/14 10/16/14
f 6/5/15 10/16/15 11/12/15
f 7/13/16 11/12/16 12/18/16
f 8/17/17 7/13/17 12/19/17
f 9/15/18 8/14/18 12/20/18
f 10/16/19 9/15/19 12/21/19
f 11/12/20 10/16/20 12/22/20
