# Blender 4.4.3
# www.blender.org
mtllib scooter.mtl
o Cube
v -1.472797 0.437100 7.018414
v -1.472797 -0.437102 7.018414
v -1.472795 0.437102 -9.531568
v -1.472795 -0.437100 -9.531568
v 1.472795 0.437100 7.018414
v 1.472795 -0.437102 7.018414
v 1.472797 0.437102 -9.531568
v 1.472797 -0.437100 -9.531568
v -0.462451 2.884833 11.498919
v 0.462447 2.884833 11.498919
v -0.462451 2.853155 10.439404
v 0.462447 2.853155 10.439404
v -0.462451 17.546492 11.060555
v 0.462447 17.546492 11.060555
v -0.462451 17.514812 10.001040
v 0.462447 17.514812 10.001040
v -0.462451 18.614786 11.028613
v 0.462447 18.614786 11.028614
v -0.462451 18.583107 9.969098
v 0.462447 18.583107 9.969099
v -10.332706 17.514812 10.001039
v -10.332706 17.546492 11.060554
v 10.332703 17.514812 10.001041
v 10.332703 17.546492 11.060556
v -10.332706 18.583107 9.969097
v -10.332706 18.614786 11.028612
v 10.332703 18.583107 9.969100
v 10.332703 18.614786 11.028615
v 0.960253 0.000001 -7.260684
v 0.960252 2.152103 -8.503201
v 0.960253 2.152102 -10.988233
v 0.960253 0.000001 -12.230748
v 0.960253 -2.152101 -10.988232
v 0.960253 -2.152100 -8.503200
v -0.940653 0.000001 -7.260684
v -0.940653 2.152103 -8.503201
v -0.940653 2.152102 -10.988233
v -0.940653 0.000001 -12.230748
v -0.940652 -2.152101 -10.988232
v -0.940653 -2.152100 -8.503200
v 0.960250 -0.000001 14.710541
v 0.960249 2.152101 13.468025
v 0.960249 2.152100 10.982994
v 0.960249 -0.000001 9.740479
v 0.960249 -2.152103 10.982994
v 0.960250 -2.152102 13.468025
v -0.940656 -0.000001 14.710541
v -0.940656 2.152101 13.468025
v -0.940657 2.152100 10.982994
v -0.940656 -0.000001 9.740479
v -0.940656 -2.152103 10.982994
v -0.940656 -2.152102 13.468025
vn -0.0000 1.0000 -0.0000
vn -0.0000 -0.0000 -1.0000
vn 1.0000 -0.0000 -0.0000
vn -0.0000 -1.0000 -0.0000
vn -1.0000 -0.0000 -0.0000
vn -0.9777 0.1643 0.1307
vn -0.0000 -0.0299 -0.9996
vn 0.9777 0.1643 0.1307
vn -0.0000 -0.8033 0.5956
vn -0.0000 0.8168 -0.5769
vn -0.0000 0.0299 0.9996
vn -0.0000 0.9996 -0.0299
vn -0.0000 -0.9996 0.0299
vn -0.0000 0.5000 -0.8660
vn -0.0000 0.5000 0.8660
vn -0.0000 -0.5000 0.8660
vn -0.0000 -0.5000 -0.8660
vt 0.362635 0.544454
vt 0.362635 0.364637
vt 0.001001 0.364637
vt 0.001001 0.544454
vt 0.544454 0.728274
vt 0.455546 0.728274
vt 0.455546 0.908090
vt 0.544454 0.908090
vt 0.544454 0.089908
vt 0.544454 0.001001
vt 0.182819 0.001001
vt 0.182819 0.089908
vt 0.180817 0.001001
vt 0.001001 0.001001
vt 0.001001 0.362635
vt 0.180817 0.362635
vt 0.544454 0.271726
vt 0.544454 0.182819
vt 0.182819 0.182819
vt 0.182819 0.271726
vt 0.726272 0.728274
vt 0.637365 0.728274
vt 0.637365 0.908090
vt 0.726272 0.908090
vt 0.544454 0.362635
vt 0.544454 0.273728
vt 0.182819 0.273728
vt 0.182819 0.362635
vt 0.908090 0.546456
vt 0.819183 0.546456
vt 0.819183 0.726272
vt 0.908090 0.726272
vt 0.362635 0.726272
vt 0.362635 0.637365
vt 0.001001 0.637365
vt 0.001001 0.726272
vt 0.635363 0.728274
vt 0.546456 0.728274
vt 0.546456 0.908090
vt 0.635363 0.908090
vt 0.726272 0.453544
vt 0.726272 0.364637
vt 0.364637 0.364637
vt 0.364637 0.453544
vt 0.817181 0.001001
vt 0.728274 0.001001
vt 0.728274 0.362635
vt 0.817181 0.362635
vt 0.726272 0.544454
vt 0.726272 0.455546
vt 0.364637 0.455546
vt 0.364637 0.544454
vt 0.817181 0.364637
vt 0.728274 0.364637
vt 0.728274 0.726272
vt 0.817181 0.726272
vt 0.817181 0.728274
vt 0.728274 0.728274
vt 0.728274 0.817181
vt 0.817181 0.817181
vt 0.362635 0.819183
vt 0.273728 0.819183
vt 0.273728 0.908090
vt 0.362635 0.908090
vt 0.453544 0.910092
vt 0.364637 0.910092
vt 0.364637 0.998999
vt 0.453544 0.998999
vt 0.726272 0.726272
vt 0.726272 0.637365
vt 0.364637 0.637365
vt 0.364637 0.726272
vt 0.998999 0.273728
vt 0.910092 0.273728
vt 0.910092 0.362635
vt 0.998999 0.362635
vt 0.271726 0.910092
vt 0.182819 0.910092
vt 0.182819 0.998999
vt 0.271726 0.998999
vt 0.908090 0.001001
vt 0.819183 0.001001
vt 0.819183 0.362635
vt 0.908090 0.362635
vt 0.726272 0.635363
vt 0.726272 0.546456
vt 0.364637 0.546456
vt 0.364637 0.635363
vt 0.726272 0.001001
vt 0.637365 0.001001
vt 0.637365 0.362635
vt 0.726272 0.362635
vt 0.362635 0.635363
vt 0.362635 0.546456
vt 0.001001 0.546456
vt 0.001001 0.635363
vt 0.635363 0.001001
vt 0.546456 0.001001
vt 0.546456 0.362635
vt 0.635363 0.362635
vt 0.544454 0.180817
vt 0.544454 0.091910
vt 0.182819 0.091910
vt 0.182819 0.180817
vt 0.089908 0.819183
vt 0.001001 0.819183
vt 0.001001 0.908090
vt 0.089908 0.908090
vt 0.180817 0.819183
vt 0.091910 0.819183
vt 0.091910 0.908090
vt 0.180817 0.908090
vt 0.271726 0.819183
vt 0.182819 0.819183
vt 0.182819 0.908090
vt 0.271726 0.908090
vt 0.362635 0.910092
vt 0.273728 0.910092
vt 0.273728 0.998999
vt 0.362635 0.998999
vt 0.908090 0.728274
vt 0.819183 0.728274
vt 0.819183 0.817181
vt 0.908090 0.817181
vt 0.817181 0.819183
vt 0.728274 0.819183
vt 0.728274 0.908090
vt 0.817181 0.908090
vt 0.452543 0.728274
vt 0.364637 0.907089
vt 0.364637 0.728274
vt 0.362635 0.817181
vt 0.183820 0.817181
vt 0.362635 0.729275
vt 0.997998 0.364637
vt 0.910092 0.364637
vt 0.910092 0.452543
vt 0.911093 0.544454
vt 0.998999 0.544454
vt 0.998999 0.456547
vt 0.998999 0.365638
vt 0.998999 0.453544
vt 0.911093 0.453544
vt 0.361634 0.728274
vt 0.182819 0.728274
vt 0.182819 0.816180
vt 0.453544 0.908090
vt 0.365638 0.908090
vt 0.453544 0.729275
vt 0.997998 0.455546
vt 0.910092 0.543453
vt 0.910092 0.455546
vt 0.908090 0.819183
vt 0.819183 0.819183
vt 0.819183 0.908090
vt 0.908090 0.908090
vt 0.089908 0.910092
vt 0.001001 0.910092
vt 0.001001 0.998999
vt 0.089908 0.998999
vt 0.998999 0.001001
vt 0.910092 0.001001
vt 0.910092 0.089908
vt 0.998999 0.089908
vt 0.180817 0.910092
vt 0.091910 0.910092
vt 0.091910 0.998999
vt 0.180817 0.998999
vt 0.998999 0.091910
vt 0.910092 0.091910
vt 0.910092 0.180817
vt 0.998999 0.180817
vt 0.998999 0.182819
vt 0.910092 0.182819
vt 0.910092 0.271726
vt 0.998999 0.271726
vt 0.907089 0.364637
vt 0.819183 0.543453
vt 0.819183 0.364637
vt 0.908090 0.544454
vt 0.908090 0.365638
vt 0.820184 0.544454
vt 0.456547 0.998999
vt 0.544454 0.998999
vt 0.544454 0.911093
vt 0.455546 0.997998
vt 0.455546 0.910092
vt 0.543453 0.910092
vt 0.635363 0.911093
vt 0.635363 0.998999
vt 0.547457 0.998999
vt 0.179816 0.728274
vt 0.001001 0.728274
vt 0.001001 0.816180
vt 0.180817 0.817181
vt 0.180817 0.729275
vt 0.002002 0.817181
vt 0.634362 0.910092
vt 0.546456 0.997998
vt 0.546456 0.910092
s 1
usemtl Material.001
f 1/1/1 5/2/1 7/3/1 3/4/1
f 4/5/2 3/6/2 7/7/2 8/8/2
f 8/9/3 7/10/3 5/11/3 6/12/3
f 6/13/4 2/14/4 4/15/4 8/16/4
f 2/17/5 1/18/5 3/19/5 4/20/5
f 1/21/6 2/22/6 9/23/6 11/24/6
f 12/25/7 11/26/7 15/27/7 16/28/7
f 6/29/8 5/30/8 12/31/8 10/32/8
f 2/33/9 6/34/9 10/35/9 9/36/9
f 5/37/10 1/38/10 11/39/10 12/40/10
f 18/41/11 14/42/11 24/43/11 28/44/11
f 11/45/5 9/46/5 13/47/5 15/48/5
f 10/49/3 12/50/3 16/51/3 14/52/3
f 9/53/11 10/54/11 14/55/11 13/56/11
f 18/57/12 20/58/12 19/59/12 17/60/12
f 13/61/11 14/62/11 18/63/11 17/64/11
f 16/65/7 15/66/7 19/67/7 20/68/7
f 19/69/7 15/70/7 21/71/7 25/72/7
f 24/73/3 23/74/3 27/75/3 28/76/3
f 21/77/5 22/78/5 26/79/5 25/80/5
f 14/81/13 16/82/13 23/83/13 24/84/13
f 17/85/12 19/86/12 25/87/12 26/88/12
f 13/89/11 17/90/11 26/91/11 22/92/11
f 16/93/7 20/94/7 27/95/7 23/96/7
f 15/97/13 13/98/13 22/99/13 21/100/13
f 20/101/12 18/102/12 28/103/12 27/104/12
f 29/105/14 34/106/14 40/107/14 35/108/14
f 33/109/15 32/110/15 38/111/15 39/112/15
f 31/113/4 30/114/4 36/115/4 37/116/4
f 34/117/1 33/118/1 39/119/1 40/120/1
f 32/121/16 31/122/16 37/123/16 38/124/16
f 30/125/17 29/126/17 35/127/17 36/128/17
f 38/129/3 35/130/3 39/131/3
f 37/132/3 35/133/3 38/134/3
f 37/135/3 36/136/3 35/137/3
f 35/138/3 40/139/3 39/140/3
f 32/141/5 33/142/5 34/143/5
f 32/144/5 34/145/5 29/146/5
f 31/147/5 32/148/5 29/149/5
f 31/150/5 29/151/5 30/152/5
f 41/153/14 46/154/14 52/155/14 47/156/14
f 45/157/15 44/158/15 50/159/15 51/160/15
f 43/161/4 42/162/4 48/163/4 49/164/4
f 46/165/1 45/166/1 51/167/1 52/168/1
f 44/169/16 43/170/16 49/171/16 50/172/16
f 42/173/17 41/174/17 47/175/17 48/176/17
f 50/177/3 47/178/3 51/179/3
f 49/180/3 47/181/3 50/182/3
f 49/183/3 48/184/3 47/185/3
f 47/186/3 52/187/3 51/188/3
f 44/189/5 45/190/5 46/191/5
f 44/192/5 46/193/5 41/194/5
f 43/195/5 44/196/5 41/197/5
f 43/198/5 41/199/5 42/200/5
